0
SECTION
2
ENTITIES
0
LINE
8
TRAVERSE_BOUNDARY
10
1000.0
20
1000.0
30
0.0
11
1098.2105329803896
21
1105.344974483903
31
0.0
0
LINE
8
TRAVERSE_BOUNDARY
10
1098.2105329803896
20
1105.344974483903
30
0.0
11
1084.8021689118298
21
1077.6677274083168
31
0.0
0
LINE
8
TRAVERSE_BOUNDARY
10
1084.8021689118298
20
1077.6677274083168
30
0.0
11
1000.0000000000001
21
1000.0000000000001
31
0.0
0
POINT
8
TRAVERSE_POINTS
10
1000.0
20
1000.0
30
0.0
0
POINT
8
TRAVERSE_POINTS
10
1098.2105329803896
20
1105.344974483903
30
0.0
0
POINT
8
TRAVERSE_POINTS
10
1084.8021689118298
20
1077.6677274083168
30
0.0
0
ENDSEC
0
EOF
